<svg width="29" height="51" viewBox="0 0 29 51" fill="none" xmlns="http://www.w3.org/2000/svg">
<path d="M1.10896 1.12259C0.398897 1.8416 1.78423e-06 2.81665 1.73979e-06 3.83333C1.69535e-06 4.85001 0.398897 5.82507 1.10896 6.54408L19.8576 25.5231L1.10896 44.5022C0.419018 45.2253 0.0372485 46.1939 0.0458792 47.1992C0.054508 48.2045 0.452846 49.1661 1.1551 49.877C1.85735 50.5879 2.80732 50.9911 3.80042 50.9999C4.79351 51.0086 5.75027 50.6221 6.46461 49.9237L27.891 28.2339C28.6011 27.5149 29 26.5398 29 25.5231C29 24.5065 28.6011 23.5314 27.891 22.8124L6.46462 1.12259C5.75434 0.403795 4.79112 -1.0582e-06 3.78679 -1.1021e-06C2.78245 -1.14601e-06 1.81924 0.403794 1.10896 1.12259Z" fill="#5D5D5D"/>
</svg>
