<svg width="35" height="35" viewBox="0 0 35 35" fill="none" xmlns="http://www.w3.org/2000/svg">
<path d="M34.672 14.3229C34.6044 13.9561 34.4078 13.6242 34.1164 13.3853C33.8251 13.1463 33.4575 13.0154 33.0779 13.0154H17.8204C17.3907 13.0154 16.9787 13.1829 16.6749 13.4812C16.371 13.7795 16.2004 14.1841 16.2004 14.606V20.7585C16.2004 21.1804 16.371 21.585 16.6749 21.8833C16.9787 22.1816 17.3907 22.3492 17.8204 22.3492H24.239C23.7819 23.1067 23.1553 23.7523 22.4067 24.2372C21.0373 25.0896 19.4413 25.5241 17.8204 25.4859C16.1398 25.4671 14.5079 24.9287 13.1568 23.9473C11.8056 22.9658 10.8038 21.5913 10.2937 20.0189V20.0157C9.7263 18.3827 9.7263 16.6112 10.2937 14.9782V14.975C10.8043 13.403 11.8063 12.029 13.1574 11.0479C14.5085 10.0668 16.14 9.52856 17.8204 9.50962C18.754 9.48852 19.6827 9.64866 20.5532 9.98085C21.4236 10.313 22.2187 10.8108 22.8927 11.4454C23.1986 11.7332 23.6072 11.8919 24.0309 11.8874C24.4546 11.883 24.8596 11.7157 25.1591 11.4216L29.8054 6.85964C29.9594 6.70863 30.0807 6.52871 30.1623 6.33063C30.2439 6.13255 30.284 5.92037 30.2802 5.70674C30.2764 5.49311 30.2288 5.28242 30.1403 5.08724C30.0518 4.89206 29.9241 4.7164 29.7649 4.57073C26.5314 1.59397 22.2527 -0.0429989 17.8204 0.000859048C14.5153 -0.00881032 11.2732 0.888384 8.45967 2.59126C5.64617 4.29414 3.3732 6.73496 1.89709 9.63846L1.89547 9.64164C0.644093 12.0779 -0.00525319 14.7692 3.20062e-05 17.4977C0.00389868 20.2257 0.652744 22.9156 1.89547 25.3554L1.89709 25.357C3.3732 28.2605 5.64617 30.7013 8.45967 32.4042C11.2732 34.1071 14.5153 35.0043 17.8204 34.9946C22.1709 35.1028 26.3989 33.5738 29.6385 30.7206L29.6402 30.719C31.3961 29.0606 32.7794 27.0599 33.7012 24.8454C34.623 22.6309 35.0629 20.2517 34.9927 17.8604C34.9934 16.6742 34.886 15.4903 34.672 14.3229ZM17.8204 3.18211C20.8519 3.15302 23.8118 4.08642 26.2592 5.84323L23.9036 8.15441C22.1178 6.94103 19.9919 6.30289 17.8204 6.32837C15.8378 6.33798 13.8935 6.86623 12.1879 7.85873C10.4823 8.85122 9.0769 10.2721 8.1164 11.9751L6.3862 10.6581L5.43848 9.93591C6.7422 7.8648 8.56495 6.15647 10.7327 4.97408C12.9004 3.79168 15.3406 3.17472 17.8204 3.18211ZM4.01771 22.1153C2.98228 19.1209 2.98228 15.8746 4.01771 12.8802L6.90461 15.0784C6.53547 16.6709 6.53547 18.3246 6.90461 19.9171L4.01771 22.1153ZM17.8204 31.8134C15.3404 31.821 12.8998 31.2042 10.7318 30.0218C8.56374 28.8394 6.74072 27.1309 5.43686 25.0596L6.05086 24.5919L8.11802 23.0172C9.07783 24.7207 10.4828 26.1421 12.1881 27.1352C13.8935 28.1283 15.8377 28.6571 17.8204 28.6671C19.6764 28.689 21.5115 28.2802 23.1762 27.4741L25.9157 29.5626C23.5056 31.0873 20.6869 31.871 17.8204 31.8134ZM28.3927 27.4232L28.0963 27.1958L25.8655 25.4954C27.0358 24.2542 27.8224 22.7117 28.1335 21.048C28.1768 20.8184 28.1681 20.5823 28.108 20.3564C28.0478 20.1304 27.9378 19.9203 27.7856 19.7408C27.6335 19.5614 27.4429 19.417 27.2276 19.318C27.0122 19.219 26.7772 19.1677 26.5394 19.1679H19.4404V16.1966H31.6701C31.7251 16.7454 31.7527 17.3021 31.7527 17.8604C31.8472 21.3416 30.6535 24.74 28.3927 27.4232Z" fill="#F75959"/>
</svg>
