<svg width="95" height="99" viewBox="0 0 95 99" fill="none" xmlns="http://www.w3.org/2000/svg">
<path d="M17.626 99H65.31V89.7188C65.31 85.6162 63.7459 81.6816 60.9618 78.7807C58.1777 75.8797 54.4017 74.25 50.4644 74.25H44.5262C43.7387 74.25 42.9835 73.9241 42.4267 73.3439C41.8699 72.7637 41.5571 71.9768 41.5571 71.1562C41.5571 70.3357 41.8699 69.5488 42.4267 68.9686C42.9835 68.3884 43.7387 68.0625 44.5262 68.0625H50.4644C55.9766 68.0625 61.2631 70.3441 65.1608 74.4055C69.0585 78.4668 71.2482 83.9752 71.2482 89.7188V99H72.7328C75.5357 99 78.0772 97.8182 79.9181 95.9062H80.1556V95.6526C81.9384 93.6888 82.9272 91.0854 82.9169 88.3823V41.2954C92.4774 40.8994 98.196 29.8485 93.0891 21.2603L90.1081 16.2484C88.9796 14.3492 87.4044 12.7818 85.5318 11.6947C83.6591 10.6075 81.5511 10.0366 79.4074 10.0361H70.886V6.10088C70.886 5.2997 70.7346 4.50636 70.4403 3.76617C70.1461 3.02598 69.7148 2.35342 69.1711 1.7869C68.6274 1.22039 67.9819 0.771 67.2716 0.464402C66.5612 0.157804 65.7998 0 65.0309 0C63.1243 0.000812388 61.2364 0.392926 59.4752 1.15395C57.714 1.91498 56.1138 3.03001 54.7662 4.43539C53.4185 5.84077 52.3497 7.50897 51.6208 9.34475C50.8919 11.1805 50.5171 13.1479 50.5179 15.1346V36.5186C42.9288 37.2982 37.1984 41.0355 32.9882 46.3073C30.3754 49.5743 28.3623 53.4105 26.8124 57.4324C25.4644 60.2786 24.5203 63.3662 24.0571 66.6208L23.9799 66.9859C22.3409 74.2995 21.7649 81.576 21.5868 86.9839C21.5155 89.298 21.5155 91.2904 21.5393 92.8125H17.626C15.3446 92.8127 13.1128 92.1181 11.2052 90.8143C9.29761 89.5104 7.7973 87.654 6.88879 85.4735C5.98029 83.2929 5.7032 80.8832 6.09159 78.5407C6.47998 76.1983 7.51693 74.0251 9.07491 72.2886L14.5381 66.1815C18.3019 61.9728 20.352 56.4067 20.2567 50.6548C20.1615 44.903 17.9284 39.4139 14.0274 35.343L8.66518 29.7557C8.39128 29.4602 8.06366 29.2245 7.70141 29.0624C7.33917 28.9002 6.94956 28.8149 6.55532 28.8113C6.16109 28.8078 5.77012 28.886 5.40522 29.0416C5.04033 29.1971 4.70882 29.4269 4.43004 29.7173C4.15126 30.0078 3.9308 30.3532 3.78151 30.7335C3.63222 31.1137 3.55709 31.521 3.56052 31.9318C3.56395 32.3426 3.64585 32.7486 3.80146 33.126C3.95707 33.5035 4.18326 33.8449 4.46684 34.1302L9.82907 39.7176C12.6462 42.652 14.2593 46.612 14.328 50.7621C14.3967 54.9121 12.9156 58.9277 10.1972 61.9616L4.73406 68.0687C2.39272 70.6887 0.835945 73.9636 0.254585 77.4919C-0.326775 81.0202 0.0925506 84.6486 1.46115 87.9323C2.82975 91.216 5.08815 94.0122 7.95947 95.9781C10.8308 97.944 14.1902 98.9942 17.626 99Z" fill="#F75959"/>
</svg>
