<svg width="30" height="30" viewBox="0 0 30 30" fill="none" xmlns="http://www.w3.org/2000/svg">
<path fill-rule="evenodd" clip-rule="evenodd" d="M15.0171 19.0381L25.12 29.1295C25.6561 29.665 26.3832 29.9658 27.1414 29.9658C27.8995 29.9658 28.6266 29.665 29.1627 29.1295C29.6988 28.594 30 27.8678 30 27.1105C30 26.3532 29.6988 25.6269 29.1627 25.0914L19.056 15L29.1608 4.90857C29.4261 4.64343 29.6366 4.32868 29.7801 3.9823C29.9237 3.63592 29.9975 3.26469 29.9974 2.88981C29.9973 2.51492 29.9233 2.14373 29.7796 1.79742C29.6359 1.4511 29.4253 1.13645 29.1599 0.871433C28.8944 0.606413 28.5793 0.396213 28.2325 0.252833C27.8858 0.109453 27.5141 0.0357014 27.1388 0.0357898C26.7635 0.0358781 26.3919 0.109804 26.0452 0.253347C25.6985 0.396891 25.3834 0.60724 25.1181 0.872385L15.0171 10.9638L4.91414 0.872385C4.65066 0.599635 4.33543 0.382031 3.98685 0.23227C3.63827 0.0825094 3.26332 0.00359068 2.88388 0.000119704C2.50443 -0.00335127 2.1281 0.0686944 1.77683 0.212053C1.42557 0.355412 1.1064 0.567213 0.837955 0.835097C0.569512 1.10298 0.357169 1.42159 0.213316 1.77232C0.069462 2.12305 -0.00302071 2.49889 9.64319e-05 2.8779C0.00321357 3.25691 0.0818679 3.6315 0.231471 3.97983C0.381074 4.32815 0.598628 4.64323 0.871441 4.90667L10.9782 15L0.873347 25.0933C0.600534 25.3568 0.382979 25.6718 0.233377 26.0202C0.0837738 26.3685 0.00511857 26.7431 0.00200143 27.1221C-0.00111571 27.5011 0.071367 27.877 0.215221 28.2277C0.359074 28.5784 0.571417 28.897 0.83986 29.1649C1.1083 29.4328 1.42747 29.6446 1.77874 29.7879C2.13001 29.9313 2.50634 30.0034 2.88578 29.9999C3.26522 29.9964 3.64017 29.9175 3.98875 29.7677C4.33733 29.618 4.65256 29.4004 4.91605 29.1276L15.0171 19.0381Z" fill="#F75959"/>
</svg>
