<svg width="100" height="112" viewBox="0 0 100 112" fill="none" xmlns="http://www.w3.org/2000/svg">
<path d="M23.0821 104C25.4973 104 27.3587 102.784 28.7355 101C30.197 99.088 30.7739 96.944 30.7739 96C30.7739 90.4 31.0431 84.024 32.2045 77.976C33.366 71.976 35.4889 65.936 39.4425 61.336C42.9577 57.256 46.5036 52.616 49.2111 46.224C51.2112 41.3843 52.5448 36.2753 53.1724 31.048C54.9276 31.8259 56.8409 32.1389 58.741 31.959C60.6411 31.7791 62.4686 31.112 64.06 30.0173C65.6513 28.9226 66.9568 27.4345 67.8596 25.6863C68.7623 23.9381 69.2342 21.9844 69.2328 20C69.2338 18.9391 68.8296 17.9213 68.1091 17.1704C67.3886 16.4195 66.4108 15.9971 65.3908 15.996C64.8857 15.9955 64.3855 16.0984 63.9187 16.299C63.4519 16.4995 63.0277 16.7937 62.6702 17.1647C61.9482 17.9141 61.542 18.9311 61.541 19.992C61.541 21.0529 61.1358 22.0703 60.4146 22.8204C59.6934 23.5706 58.7151 23.992 57.6951 23.992C56.6751 23.992 55.6969 23.5706 54.9757 22.8204C54.2544 22.0703 53.8492 21.0529 53.8492 19.992V11.992C53.8513 8.81079 55.0678 5.7606 57.2313 3.51189C59.3948 1.26318 62.3283 -7.06936e-07 65.3869 0H74.794C76.886 0.00020668 78.9385 0.59198 80.7321 1.712L94.4004 10.24C96.1082 11.3062 97.5215 12.8142 98.5028 14.617C99.4841 16.4199 99.9999 18.4563 100 20.528V28C100 31.1826 98.7844 34.2348 96.6207 36.4853C94.4569 38.7357 91.5223 40 88.4623 40H84.6164V88.4C88.9598 89.3221 92.8635 91.7767 95.6668 95.3484C98.4702 98.9201 100.001 103.389 100 108C100 109.061 99.5948 110.078 98.8736 110.828C98.1523 111.579 97.1741 112 96.1541 112H76.9246V108C76.9246 101.448 73.9017 95.64 69.2328 92V76C69.2328 74.9391 68.8276 73.9217 68.1064 73.1716C67.3851 72.4214 66.4069 72 65.3869 72C64.3669 72 63.3887 72.4214 62.6675 73.1716C61.9462 73.9217 61.541 74.9391 61.541 76V88.4C60.2752 88.1327 58.9868 87.9987 57.6951 88H53.8492C52.8292 88 51.851 88.4214 51.1298 89.1716C50.4085 89.9217 50.0033 90.9391 50.0033 92C50.0033 93.0609 50.4085 94.0783 51.1298 94.8284C51.851 95.5786 52.8292 96 53.8492 96H57.6951C60.7551 96 63.6898 97.2643 65.8535 99.5147C68.0173 101.765 69.2328 104.817 69.2328 108V112H21.1591C16.6201 112.001 12.2009 110.484 8.55469 107.673C4.90845 104.861 2.22852 100.904 0.910865 96.3864C-0.406787 91.8688 -0.292257 87.0301 1.23753 82.5854C2.76732 78.1407 5.63121 74.3256 9.40605 71.704C9.82549 71.401 10.2987 71.1879 10.7982 71.0772C11.2977 70.9664 11.8133 70.9603 12.3151 71.059C12.8169 71.1578 13.2947 71.3595 13.7208 71.6524C14.1468 71.9453 14.5125 72.3235 14.7964 72.7649C15.0804 73.2064 15.277 73.7022 15.3748 74.2236C15.4725 74.7449 15.4695 75.2812 15.3658 75.8013C15.2621 76.3214 15.0599 76.8148 14.7709 77.2528C14.482 77.6907 14.112 78.0644 13.6827 78.352C11.2785 80.0193 9.45404 82.4471 8.47905 85.2763C7.50405 88.1054 7.4303 91.1858 8.2687 94.062C9.1071 96.9381 10.8131 99.4573 13.1345 101.247C15.4559 103.037 18.2695 104.002 21.1591 104H23.0821Z" fill="#F75959"/>
</svg>
