<svg width="35" height="36" viewBox="0 0 35 36" fill="none" xmlns="http://www.w3.org/2000/svg">
<path d="M34.6898 14.7561C34.8982 15.9642 35.002 17.1883 35 18.4145C35 23.8909 33.0585 28.5212 29.6799 31.6554H29.6844C26.7298 34.407 22.6683 36 17.8526 36C13.1178 36 8.57691 34.1036 5.2289 30.7281C1.88089 27.3525 0 22.7743 0 18.0005C0 13.2268 1.88089 8.64855 5.2289 5.273C8.57691 1.89744 13.1178 0.00107547 17.8526 0.00107547C22.2839 -0.0486794 26.5629 1.62961 29.7959 4.68544L24.699 9.82428C22.8562 8.05415 20.3975 7.08457 17.8526 7.12436C13.1953 7.12436 9.23871 10.2923 7.82835 14.5581C7.08188 16.7937 7.08188 19.2141 7.82835 21.4497H7.83505C9.2521 25.7088 13.202 28.8767 17.8593 28.8767C20.2649 28.8767 22.3313 28.2557 23.9336 27.1578H23.9269C24.8575 26.5365 25.6534 25.7316 26.2667 24.7915C26.88 23.8514 27.2979 22.7957 27.4952 21.6882H17.8526V14.7584L34.6898 14.7561Z" fill="#FAFAFA"/>
</svg>
