<svg width="115" height="102" viewBox="0 0 115 102" fill="none" xmlns="http://www.w3.org/2000/svg">
<path d="M114.97 50.8905C114.97 54.4757 111.974 57.2841 108.579 57.2841H102.189L102.329 89.1927C102.368 96.2636 96.637 102 89.5475 102H25.5622C18.5126 102 12.7811 96.2835 12.7811 89.2525V57.304H6.39054C2.79586 57.304 0 54.5155 0 50.9104C0 49.1178 0.599113 47.5243 1.99704 46.1301L53.1813 1.59344C54.5792 0.19918 56.1769 0 57.5748 0C58.9727 0 60.5704 0.39836 61.7686 1.39426L83.0571 20.0574V12.7475C83.0571 9.22203 85.9128 6.37376 89.4476 6.37376H95.8382C99.3729 6.37376 102.229 9.22203 102.229 12.7475V36.8483L112.773 46.0902C114.371 47.4845 115.17 49.0779 114.97 50.8705V50.8905ZM54.2996 38.2425C52.5422 38.2425 51.1044 39.6766 51.1044 41.4294V50.99H41.5185C39.7611 50.99 38.3233 52.4241 38.3233 54.1769V60.5507C38.3233 62.3035 39.7611 63.7376 41.5185 63.7376H51.1044V73.2982C51.1044 75.051 52.5422 76.4851 54.2996 76.4851H60.6902C62.4476 76.4851 63.8854 75.051 63.8854 73.2982V63.7376H73.4713C75.2287 63.7376 76.6665 62.3035 76.6665 60.5507V54.1769C76.6665 52.4241 75.2287 50.99 73.4713 50.99H63.8854V41.4294C63.8854 39.6766 62.4476 38.2425 60.6902 38.2425H54.2996Z" fill="#F75959"/>
</svg>
