<svg width="46" height="38" viewBox="0 0 46 38" fill="none" xmlns="http://www.w3.org/2000/svg">
<path d="M39.4777 9.57827C38.3701 9.57827 37.2874 9.90136 36.3665 10.5067C35.4456 11.112 34.7279 11.9724 34.304 12.979C33.8802 13.9856 33.7693 15.0932 33.9854 16.1618C34.2014 17.2304 34.7348 18.212 35.5179 18.9824C36.3011 19.7528 37.2989 20.2775 38.3852 20.4901C39.4715 20.7026 40.5974 20.5935 41.6207 20.1766C42.6439 19.7596 43.5185 19.0535 44.1339 18.1476C44.7492 17.2417 45.0776 16.1766 45.0776 15.0871C45.0776 13.6261 44.4876 12.2249 43.4374 11.1918C42.3873 10.1587 40.9629 9.57827 39.4777 9.57827ZM39.4777 17.448C39.003 17.448 38.539 17.3095 38.1443 17.0501C37.7497 16.7907 37.4421 16.422 37.2604 15.9906C37.0788 15.5592 37.0312 15.0845 37.1238 14.6265C37.2164 14.1685 37.445 13.7478 37.7807 13.4177C38.1163 13.0875 38.5439 12.8626 39.0095 12.7715C39.475 12.6804 39.9576 12.7272 40.3961 12.9059C40.8347 13.0846 41.2095 13.3872 41.4732 13.7754C41.7369 14.1637 41.8777 14.6201 41.8777 15.0871C41.8777 15.7132 41.6248 16.3138 41.1747 16.7565C40.7246 17.1993 40.1142 17.448 39.4777 17.448ZM11.4781 15.0871C11.4781 13.9976 11.1496 12.9325 10.5343 12.0266C9.91897 11.1206 9.04438 10.4146 8.02113 9.99761C6.99787 9.58066 5.87192 9.47156 4.78564 9.68412C3.69936 9.89668 2.70155 10.4213 1.91838 11.1918C1.13522 11.9622 0.601876 12.9438 0.385802 14.0124C0.169727 15.081 0.280625 16.1886 0.70447 17.1952C1.12832 18.2018 1.84607 19.0622 2.76698 19.6675C3.68788 20.2728 4.77057 20.5959 5.87813 20.5959C7.36332 20.5959 8.78768 20.0155 9.83787 18.9824C10.8881 17.9493 11.4781 16.5481 11.4781 15.0871ZM5.87813 17.448C5.40346 17.448 4.93945 17.3095 4.54478 17.0501C4.1501 16.7907 3.84249 16.422 3.66085 15.9906C3.4792 15.5592 3.43167 15.0845 3.52427 14.6265C3.61688 14.1685 3.84545 13.7478 4.18109 13.4177C4.51674 13.0875 4.94437 12.8626 5.40992 12.7715C5.87547 12.6804 6.35802 12.7272 6.79656 12.9059C7.23509 13.0846 7.60992 13.3872 7.87363 13.7754C8.13734 14.1637 8.2781 14.6201 8.2781 15.0871C8.2781 15.7132 8.02524 16.3138 7.57516 16.7565C7.12508 17.1993 6.51464 17.448 5.87813 17.448ZM15.478 11.1522C16.5856 11.1522 17.6683 10.8291 18.5892 10.2238C19.5101 9.6185 20.2278 8.75814 20.6517 7.75154C21.0755 6.74493 21.1864 5.63729 20.9703 4.56869C20.7543 3.50008 20.2209 2.5185 19.4378 1.74808C18.6546 0.977659 17.6568 0.452994 16.5705 0.240435C15.4842 0.0278764 14.3583 0.136969 13.335 0.553919C12.3118 0.970868 11.4372 1.67695 10.8218 2.58287C10.2065 3.48879 9.87808 4.55386 9.87808 5.6434C9.87808 7.10443 10.4681 8.50562 11.5183 9.53873C12.5684 10.5718 13.9928 11.1522 15.478 11.1522ZM15.478 3.28248C15.9527 3.28248 16.4167 3.42095 16.8114 3.68037C17.206 3.93979 17.5136 4.30852 17.6953 4.73992C17.8769 5.17132 17.9245 5.64602 17.8319 6.104C17.7393 6.56197 17.5107 6.98265 17.175 7.31283C16.8394 7.64301 16.4118 7.86786 15.9462 7.95896C15.4807 8.05006 14.9981 8.0033 14.5596 7.82461C14.121 7.64592 13.7462 7.34331 13.4825 6.95506C13.2188 6.56681 13.078 6.11035 13.078 5.6434C13.078 5.01725 13.3309 4.41674 13.781 3.97398C14.2311 3.53122 14.8415 3.28248 15.478 3.28248ZM29.8778 11.1522C30.9854 11.1522 32.0681 10.8291 32.989 10.2238C33.9099 9.6185 34.6276 8.75814 35.0515 7.75154C35.4753 6.74493 35.5862 5.63729 35.3701 4.56869C35.1541 3.50008 34.6207 2.5185 33.8376 1.74808C33.0544 0.977659 32.0566 0.452994 30.9703 0.240435C29.884 0.0278764 28.7581 0.136969 27.7348 0.553919C26.7116 0.970868 25.837 1.67695 25.2216 2.58287C24.6063 3.48879 24.2779 4.55386 24.2779 5.6434C24.2779 7.10443 24.8679 8.50562 25.9181 9.53873C26.9683 10.5718 28.3926 11.1522 29.8778 11.1522ZM29.8778 3.28248C30.3525 3.28248 30.8165 3.42095 31.2112 3.68037C31.6058 3.93979 31.9135 4.30852 32.0951 4.73992C32.2767 5.17132 32.3243 5.64602 32.2317 6.104C32.1391 6.56197 31.9105 6.98265 31.5749 7.31283C31.2392 7.64301 30.8116 7.86786 30.346 7.95896C29.8805 8.05006 29.3979 8.0033 28.9594 7.82461C28.5209 7.64592 28.146 7.34331 27.8823 6.95506C27.6186 6.56681 27.4778 6.11035 27.4778 5.6434C27.4778 5.01725 27.7307 4.41674 28.1808 3.97398C28.6309 3.53122 29.2413 3.28248 29.8778 3.28248ZM34.5018 23.126C33.6891 22.685 32.9727 22.0906 32.3938 21.3769C31.8149 20.6633 31.3847 19.8443 31.1278 18.9669C30.5958 17.1672 29.4844 15.5859 27.9607 14.4607C26.437 13.3356 24.5832 12.7273 22.6779 12.7273C20.7727 12.7273 18.9189 13.3356 17.3951 14.4607C15.8714 15.5859 14.76 17.1672 14.228 18.9669C13.7141 20.7324 12.5094 22.2253 10.8781 23.1182C9.31312 23.9512 8.07516 25.2737 7.35996 26.8764C6.64477 28.4792 6.49318 30.2708 6.92916 31.9679C7.36514 33.6649 8.36381 35.1705 9.76722 36.2466C11.1706 37.3227 12.8987 37.9078 14.678 37.9093C15.7443 37.9122 16.8002 37.7028 17.782 37.2935C20.9121 36.0239 24.4257 36.0239 27.5558 37.2935C29.4517 38.1047 31.5932 38.1623 33.5313 37.4543C35.4694 36.7463 37.0537 35.3277 37.9519 33.4959C38.8501 31.664 38.9925 29.5613 38.3493 27.6284C37.7061 25.6956 36.3272 24.0827 34.5018 23.128V23.126ZM30.6778 34.7614C30.0282 34.762 29.3852 34.6328 28.7878 34.3817C24.8691 32.7894 20.4687 32.7894 16.55 34.3817C15.4112 34.8641 14.1269 34.8942 12.966 34.4659C11.8051 34.0375 10.8577 33.1838 10.3224 32.0837C9.787 30.9836 9.70513 29.7223 10.0939 28.5642C10.4827 27.406 11.312 26.4407 12.408 25.8706C13.5865 25.2304 14.6251 24.3679 15.4645 23.3325C16.3039 22.2971 16.9276 21.1091 17.3 19.8365C17.6381 18.6906 18.3453 17.6837 19.3151 16.9672C20.2849 16.2507 21.465 15.8634 22.6779 15.8634C23.8908 15.8634 25.0709 16.2507 26.0407 16.9672C27.0106 17.6837 27.7177 18.6906 28.0558 19.8365C28.4294 21.1115 29.055 22.3015 29.8969 23.3383C30.7387 24.3751 31.7802 25.2383 32.9618 25.8785C33.9054 26.3764 34.6528 27.1703 35.0849 28.1342C35.517 29.098 35.6091 30.1762 35.3465 31.1975C35.0839 32.2187 34.4818 33.1242 33.6358 33.77C32.7898 34.4158 31.7486 34.7648 30.6778 34.7614Z" fill="#F75959"/>
</svg>
