<svg width="31" height="27" viewBox="0 0 31 27" fill="none" xmlns="http://www.w3.org/2000/svg">
<path d="M31 10.677C31 11.455 30.7727 12.2155 30.3469 12.8624C29.9212 13.5093 29.316 14.0135 28.6079 14.3112C27.8998 14.6089 27.1207 14.6868 26.369 14.535C25.6173 14.3833 24.9269 14.0086 24.385 13.4585C23.843 12.9084 23.474 12.2075 23.3245 11.4444C23.1749 10.6814 23.2517 9.89043 23.545 9.17166C23.8383 8.45288 24.3349 7.83853 24.9722 7.4063C25.6094 6.97407 26.3586 6.74336 27.125 6.74336C28.1527 6.74336 29.1383 7.1578 29.865 7.89549C30.5917 8.63319 31 9.63373 31 10.677ZM7.75 10.677C7.75 9.89899 7.52274 9.13846 7.09695 8.49158C6.67116 7.8447 6.06596 7.34052 5.3579 7.04279C4.64984 6.74506 3.8707 6.66717 3.11903 6.81895C2.36735 6.97073 1.67689 7.34537 1.13496 7.89549C0.593035 8.44562 0.223976 9.14653 0.0744588 9.90958C-0.0750589 10.6726 0.00167897 11.4635 0.294969 12.1823C0.588258 12.9011 1.08493 13.5154 1.72217 13.9477C2.35941 14.3799 3.1086 14.6106 3.875 14.6106C4.90272 14.6106 5.88834 14.1962 6.61504 13.4585C7.34174 12.7208 7.75 11.7203 7.75 10.677ZM10.5179 7.86726C11.2843 7.86726 12.0335 7.63655 12.6707 7.20432C13.3079 6.77209 13.8046 6.15774 14.0979 5.43896C14.3912 4.72019 14.4679 3.92927 14.3184 3.16622C14.1689 2.40317 13.7998 1.70226 13.2579 1.15213C12.716 0.602007 12.0255 0.227365 11.2738 0.0755853C10.5222 -0.0761946 9.74302 0.00170437 9.03496 0.299431C8.3269 0.597158 7.7217 1.10134 7.29591 1.74822C6.87012 2.3951 6.64286 3.15563 6.64286 3.93363C6.64286 4.97689 7.05112 5.97742 7.77782 6.71512C8.50452 7.45282 9.49014 7.86726 10.5179 7.86726ZM20.4821 7.86726C21.2485 7.86726 21.9977 7.63655 22.635 7.20432C23.2722 6.77209 23.7689 6.15774 24.0622 5.43896C24.3555 4.72019 24.4322 3.92927 24.2827 3.16622C24.1332 2.40317 23.7641 1.70226 23.2222 1.15213C22.6803 0.602007 21.9898 0.227365 21.2381 0.0755853C20.4864 -0.0761946 19.7073 0.00170437 18.9992 0.299431C18.2912 0.597158 17.686 1.10134 17.2602 1.74822C16.8344 2.3951 16.6071 3.15563 16.6071 3.93363C16.6071 4.97689 17.0154 5.97742 17.7421 6.71512C18.4688 7.45282 19.4544 7.86726 20.4821 7.86726ZM23.6818 16.4173C23.1194 16.1023 22.6237 15.6779 22.2231 15.1683C21.8225 14.6587 21.5248 14.0739 21.3471 13.4474C20.979 12.1623 20.2099 11.0332 19.1556 10.2297C18.1012 9.4263 16.8184 8.99194 15.5 8.99194C14.1816 8.99194 12.8988 9.4263 11.8445 10.2297C10.7901 11.0332 10.021 12.1623 9.6529 13.4474C9.29731 14.7081 8.46366 15.7741 7.33482 16.4117C6.25193 17.0065 5.39529 17.9508 4.90039 19.0953C4.4055 20.2398 4.3006 21.5191 4.60229 22.7309C4.90398 23.9427 5.59503 25.0178 6.56615 25.7862C7.53727 26.5545 8.73302 26.9723 9.96429 26.9734C10.7021 26.9755 11.4328 26.8259 12.1121 26.5337C14.2781 25.6271 16.7094 25.6271 18.8754 26.5337C20.1873 27.1129 21.6692 27.1541 23.0103 26.6485C24.3514 26.143 25.4476 25.13 26.0692 23.822C26.6907 22.5139 26.7893 21.0124 26.3442 19.6322C25.8991 18.2521 24.945 17.1004 23.6818 16.4187V16.4173Z" fill="#FAFAFA"/>
</svg>
