<svg width="28" height="28" viewBox="0 0 28 28" fill="none" xmlns="http://www.w3.org/2000/svg">
<path fill-rule="evenodd" clip-rule="evenodd" d="M14 2.8C12.0411 2.79964 10.1163 3.31308 8.41781 4.28908C6.71932 5.26507 5.30652 6.66949 4.32043 8.36213C3.33434 10.0548 2.80945 11.9765 2.79815 13.9354C2.78684 15.8943 3.28952 17.8219 4.25601 19.5258C4.90926 18.6768 5.74901 17.9894 6.71033 17.5168C7.67164 17.0441 8.72878 16.7989 9.80001 16.8H18.2C19.2712 16.7989 20.3284 17.0441 21.2897 17.5168C22.251 17.9894 23.0907 18.6768 23.744 19.5258C24.7105 17.8219 25.2132 15.8943 25.2019 13.9354C25.1906 11.9765 24.6657 10.0548 23.6796 8.36213C22.6935 6.66949 21.2807 5.26507 19.5822 4.28908C17.8837 3.31308 15.9589 2.79964 14 2.8ZM25.1202 22.5064C25.2957 22.2777 25.4637 22.0435 25.6242 21.8036C27.1763 19.4974 28.0036 16.7799 28 14C28 6.2678 21.7322 0 14 0C6.26781 0 1.43576e-05 6.2678 1.43576e-05 14C-0.00439749 17.0755 1.00807 20.0661 2.87981 22.5064L2.87281 22.5316L3.36981 23.1098C4.68285 24.6449 6.31315 25.8771 8.14833 26.7213C9.98352 27.5655 11.9799 28.0018 14 28C14.3024 28 14.6029 27.9907 14.9016 27.972C17.4277 27.8127 19.8628 26.9681 21.945 25.529C22.9408 24.842 23.8434 24.0288 24.6302 23.1098L25.1272 22.5316L25.1202 22.5064ZM14 5.6C12.8861 5.6 11.8178 6.0425 11.0302 6.83015C10.2425 7.6178 9.80001 8.68609 9.80001 9.8C9.80001 10.9139 10.2425 11.9822 11.0302 12.7698C11.8178 13.5575 12.8861 14 14 14C15.1139 14 16.1822 13.5575 16.9698 12.7698C17.7575 11.9822 18.2 10.9139 18.2 9.8C18.2 8.68609 17.7575 7.6178 16.9698 6.83015C16.1822 6.0425 15.1139 5.6 14 5.6Z" fill="#FAFAFA"/>
</svg>
