<svg width="28" height="27" viewBox="0 0 28 27" fill="none" xmlns="http://www.w3.org/2000/svg">
<path d="M25.2 0H2.8C1.26 0 0.014 1.305 0.014 2.9L0.00199324 25.284C0.00126939 26.6335 1.64376 27.2975 2.5811 26.3267L5.15769 23.6581C5.44035 23.3653 5.82984 23.2 6.23679 23.2H25.2C26.74 23.2 28 21.895 28 20.3V2.9C28 1.305 26.74 0 25.2 0ZM21 17.4H7C6.23 17.4 5.6 16.7475 5.6 15.95C5.6 15.1525 6.23 14.5 7 14.5H21C21.77 14.5 22.4 15.1525 22.4 15.95C22.4 16.7475 21.77 17.4 21 17.4ZM21 13.05H7C6.23 13.05 5.6 12.3975 5.6 11.6C5.6 10.8025 6.23 10.15 7 10.15H21C21.77 10.15 22.4 10.8025 22.4 11.6C22.4 12.3975 21.77 13.05 21 13.05ZM21 8.7H7C6.23 8.7 5.6 8.0475 5.6 7.25C5.6 6.4525 6.23 5.8 7 5.8H21C21.77 5.8 22.4 6.4525 22.4 7.25C22.4 8.0475 21.77 8.7 21 8.7Z" fill="#FAFAFA"/>
</svg>
