<svg width="27" height="28" viewBox="0 0 27 28" fill="none" xmlns="http://www.w3.org/2000/svg">
<path d="M2 28C0.895431 28 0 27.1046 0 26V2C0 0.895431 0.895431 0 2 0H25C26.1046 0 27 0.895431 27 2V26C27 27.1046 26.1046 28 25 28H2ZM22.5 22.9444C22.5 22.3001 21.9777 21.7778 21.3333 21.7778H4.5V22.1111C4.5 23.2157 5.39543 24.1111 6.5 24.1111H21.3333C21.9777 24.1111 22.5 23.5888 22.5 22.9444V22.9444ZM4.5 19.4444H21.3333C21.9777 19.4444 22.5 18.9221 22.5 18.2778V18.2778C22.5 17.6334 21.9777 17.1111 21.3333 17.1111H4.5V19.4444ZM4.5 14H20.5C21.6046 14 22.5 13.1046 22.5 12V6.66667C22.5 5.5621 21.6046 4.66667 20.5 4.66667H6.5C5.39543 4.66667 4.5 5.5621 4.5 6.66667V14Z" fill="#5D5D5D"/>
</svg>
