<svg width="50" height="50" viewBox="0 0 50 50" fill="none" xmlns="http://www.w3.org/2000/svg">
<path d="M4.73594 23.9557L4.73572 23.956L2.00627 27.8024C2.00622 27.8024 2.00617 27.8025 2.00613 27.8026C-1.3911 32.5808 1.23075 39.0311 7.05668 40.5207C8.77725 40.9611 10.5128 41.3363 12.2591 41.6485C14.2455 46.3065 19.2599 49.5 24.9988 49.5C30.7378 49.5 35.752 46.3065 37.7408 41.6486C39.4899 41.3365 41.2253 40.9602 42.9432 40.5207C48.7693 39.0312 51.3912 32.5807 47.9937 27.8024L45.2618 23.9559L45.2617 23.9557C44.4004 22.744 43.943 21.3238 43.9429 19.874V18.3023C43.9429 13.5702 41.9387 9.03883 38.3828 5.70307C34.828 2.36833 30.0131 0.5 24.9988 0.5C19.9845 0.5 15.1696 2.36833 11.6148 5.70307C8.05893 9.03883 6.05475 13.5702 6.05475 18.3023V19.874C6.05475 19.874 6.05475 19.874 6.05475 19.874C6.05461 21.3238 5.59721 22.744 4.73594 23.9557ZM44.2085 30.2391L44.2088 30.2395C44.585 30.768 44.8201 31.3704 44.8974 31.9967C44.9747 32.6229 44.8922 33.2579 44.6559 33.8501C44.4194 34.4425 44.0349 34.9768 43.5312 35.4073C43.0273 35.838 42.419 36.1521 41.7557 36.3213L41.7554 36.3214C30.7841 39.1283 19.2112 39.1283 8.23988 36.3214C7.5772 36.1517 6.96959 35.8374 6.46626 35.4068C5.96305 34.9763 5.57886 34.4423 5.34247 33.8503C5.10617 33.2585 5.02353 32.6239 5.1003 31.998C5.17709 31.372 5.41151 30.7699 5.78679 30.2413L8.52344 26.3926L8.5236 26.3924C9.89256 24.4649 10.6251 22.1968 10.6246 19.874C10.6246 19.874 10.6246 19.874 10.6246 19.8739V18.3023C10.6246 14.7449 12.1307 11.3262 14.8232 8.80038C17.5168 6.27352 21.1766 4.84884 24.9988 4.84884C28.821 4.84884 32.4808 6.27352 35.1744 8.80038C37.8669 11.3262 39.3731 14.7449 39.3731 18.3023V19.874C39.3731 22.1971 40.1064 24.4657 41.4766 26.3926L44.2085 30.2391ZM24.9988 45.1512C22.2395 45.1512 19.8112 44.0874 18.166 42.4538C22.709 42.8828 27.2864 42.8828 31.8294 42.4537C30.1846 44.0875 27.7581 45.1512 24.9988 45.1512Z" fill="#F75959" stroke="#F75959"/>
</svg>
