<svg width="46" height="46" viewBox="0 0 46 46" fill="none" xmlns="http://www.w3.org/2000/svg">
<path d="M44.7418 40.9433L44.7419 40.9432L44.7344 40.9358L36.8928 33.1516C39.9508 29.1577 41.4212 24.1641 41.0082 19.1389C40.5829 13.9639 38.1924 9.14864 34.3283 5.6832C30.4642 2.21775 25.4202 0.365565 20.2333 0.507605C15.0464 0.649644 10.1111 2.7751 6.44216 6.44683C2.77323 10.1185 0.649521 15.0574 0.507599 20.2479C0.365676 25.4384 2.21632 30.4861 5.67911 34.3531C9.14191 38.2201 13.9537 40.6125 19.125 41.0382C24.1471 41.4516 29.1375 39.9797 33.1286 36.9189L40.9049 44.7011C40.9052 44.7014 40.9055 44.7017 40.9058 44.7019C41.1564 44.9547 41.4546 45.1553 41.7831 45.2923C42.112 45.4294 42.4648 45.5 42.8211 45.5C43.1774 45.5 43.5302 45.4294 43.8591 45.2923C44.188 45.1551 44.4865 44.9542 44.7373 44.7011L44.7374 44.7011L44.7418 44.6965C45.2282 44.1929 45.5 43.5201 45.5 42.8199C45.5 42.1197 45.2282 41.4468 44.7418 40.9433ZM20.8342 35.7518C17.8891 35.7518 15.0102 34.8778 12.5614 33.2404C10.1126 31.6029 8.20399 29.2755 7.07689 26.5523C5.94979 23.8292 5.65488 20.8327 6.22948 17.9418C6.80407 15.051 8.22235 12.3956 10.3049 10.3114C12.3875 8.22731 15.0407 6.80804 17.9292 6.23305C20.8177 5.65806 23.8116 5.95316 26.5325 7.08105C29.2535 8.20894 31.5791 10.119 33.2154 12.5697C34.8517 15.0204 35.725 17.9017 35.725 20.8493C35.725 24.8018 34.1561 28.5923 31.3635 31.3871C28.5709 34.1818 24.7834 35.7518 20.8342 35.7518Z" fill="#F75959" stroke="#F75959"/>
</svg>
